<svg width="90" height="90" viewBox="0 0 90 90" fill="none" xmlns="http://www.w3.org/2000/svg">
<g clip-path="url(#clip0)">
<path d="M66.2517 36.6422C66.2517 36.6422 69.8696 43.4859 66.2517 51.793V36.6422Z" fill="#49618C"/>
<path d="M76.8198 13.1802C68.3205 4.68086 57.0197 0 45 0C36.2995 0 26.7469 3.14346 18.7914 8.62495C17.9894 9.17702 17.7876 10.2757 18.3403 11.0777C18.8924 11.8803 19.991 12.0822 20.793 11.5295C28.1738 6.44417 36.9971 3.5273 45 3.5273C67.868 3.5273 86.472 22.132 86.472 45C86.472 67.868 67.868 86.4727 45 86.4727C22.132 86.4727 3.5273 67.868 3.5273 45C3.5273 37.76 5.42038 30.6347 9.00124 24.3931C9.42558 23.6536 10.2969 22.3208 11.3914 20.7374C11.9463 19.9361 11.7458 18.8374 10.9444 18.2833C10.1431 17.7292 9.04449 17.9297 8.49037 18.731C7.8154 19.7074 6.58699 21.5126 5.94154 22.6373C2.05444 29.4125 0 37.1455 0 45C0 57.0197 4.68086 68.3205 13.1802 76.8198C21.6795 85.3191 32.9803 90 45 90C57.0197 90 68.3205 85.3191 76.8198 76.8198C85.3191 68.3205 90 57.0197 90 45C90 32.9803 85.3191 21.6795 76.8198 13.1802Z" fill="#49618C"/>
<path d="M45 75.588C61.8661 75.588 75.588 61.8661 75.588 45C75.588 28.1339 61.8661 14.412 45 14.412C28.1339 14.412 14.412 28.1339 14.412 45C14.412 61.8661 28.1339 75.588 45 75.588ZM45 17.94C59.9208 17.94 72.06 30.0785 72.06 45C72.06 59.9208 59.9208 72.06 45 72.06C30.0785 72.06 17.9393 59.9208 17.9393 45C17.9393 30.0785 30.0792 17.94 45 17.94Z" fill="#49618C"/>
<path d="M42.4779 64.91V66.2386C42.4779 67.213 43.2675 68.0026 44.2412 68.0026C45.2155 68.0026 46.0052 67.213 46.0052 66.2386V64.7493C47.452 64.511 49.2647 64.0208 50.958 63.0141C54.1687 61.1059 55.8661 58.0243 55.8661 54.1022C55.8661 47.5976 49.595 43.9515 46.0052 43.3314V30.1863C47.248 30.4465 48.53 31.1634 49.5819 32.216C50.6098 33.2439 50.6593 33.9539 50.6593 36.0571C50.6593 37.0315 51.4489 37.8136 52.4226 37.8136C53.3969 37.8136 54.1866 37.0164 54.1866 36.0427C54.1866 33.877 54.1866 31.8322 52.0758 29.7214C50.3311 27.9767 48.1647 26.8773 46.0052 26.6123V25.2782C46.0052 24.3045 45.2155 23.5142 44.2412 23.5142C43.2675 23.5142 42.4772 24.3045 42.4772 25.2782V26.8986C41.2721 27.2042 39.9332 27.7288 38.6924 28.5466C36.6126 29.9171 34.1338 32.569 34.1338 37.4146C34.1338 40.6659 35.746 43.295 38.7954 45.0185C40.052 45.7285 41.3525 46.1687 42.4772 46.4303V61.3394C39.388 60.7173 36.9401 57.2903 36.9401 53.3036C36.9401 52.3299 36.1498 51.5403 35.1761 51.5403C34.2024 51.5403 33.4121 52.3299 33.4121 53.3036C33.4121 56.3118 34.427 59.1833 36.2686 61.3909C37.9556 63.4117 40.1309 64.6374 42.4779 64.91ZM52.3381 54.1022C52.3381 58.965 48.644 60.6081 46.0052 61.1609V46.9494C48.1976 47.5934 52.3381 49.9267 52.3381 54.1022ZM40.5312 41.9472C38.5997 40.8561 37.6611 39.3736 37.6611 37.4146C37.6611 34.7848 38.6615 32.7921 40.6342 31.4916C41.2261 31.1009 41.864 30.8043 42.4772 30.5859V42.7753C41.8372 42.5754 41.1623 42.3042 40.5312 41.9472Z" fill="#49618C"/>
<path d="M14.416 16.1973C14.5486 16.1973 14.6838 16.1822 14.8191 16.1506L14.8843 16.1355C15.8326 15.9137 16.421 14.9648 16.1993 14.0158C15.9775 13.0676 15.0285 12.4798 14.0796 12.7009L14.015 12.716C13.0668 12.9378 12.4776 13.8867 12.6994 14.8357C12.8903 15.6487 13.6147 16.1973 14.416 16.1973Z" fill="#49618C"/>
<path d="M63.514 59.3159C63.6486 59.3159 63.7852 59.3001 63.9218 59.2678L63.9864 59.2527C64.9347 59.0282 65.521 58.0778 65.2965 57.1296C65.072 56.182 64.1223 55.5963 63.1741 55.8195L63.1095 55.8346C62.1613 56.0591 61.5749 57.0094 61.7987 57.9577C61.991 58.7686 62.7147 59.3159 63.514 59.3159Z" fill="#49618C"/>
<path d="M65.5472 53.4101C65.7765 53.5103 66.0155 53.5577 66.2503 53.5577C66.9308 53.5577 67.579 53.1615 67.8681 52.4975C71.7806 43.5155 67.9745 36.1279 67.8104 35.8175C67.3551 34.9565 66.2881 34.6275 65.427 35.0828C64.566 35.538 64.2364 36.6051 64.6916 37.4661C64.7239 37.5273 67.8756 43.646 64.634 51.0892C64.2453 51.9818 64.6539 53.0214 65.5472 53.4101Z" fill="#49618C"/>
</g>
<defs>
<clipPath id="clip0">
<rect width="90" height="90" fill="white"/>
</clipPath>
</defs>
</svg>
