<svg width="90" height="90" viewBox="0 0 90 90" fill="none" xmlns="http://www.w3.org/2000/svg">
<path d="M45 0C20.1881 0 0 20.1881 0 45C0 69.8119 20.1881 90 45 90C69.8119 90 90 69.8119 90 45C90 20.1881 69.8119 0 45 0ZM45 86.2502C22.2542 86.2502 3.74977 67.7458 3.74977 45C3.74977 22.2542 22.2542 3.74977 45 3.74977C67.7458 3.74977 86.2502 22.2542 86.2502 45C86.2502 67.7458 67.7458 86.2502 45 86.2502Z" fill="#49618C"/>
<path d="M80.6232 56.7485C81.8681 52.9685 82.4998 49.0162 82.4998 45C82.4998 24.3224 65.6777 7.50024 45 7.50024C24.3224 7.50024 7.50024 24.3224 7.50024 45C7.50024 65.6777 24.3224 82.4998 45 82.4998C59.4917 82.4998 72.8304 74.0156 78.9787 60.8849L75.5811 59.2953C74.1639 62.3234 72.3168 65.07 70.1422 67.4904L67.5378 64.888L64.886 67.5392L67.4774 70.1285C62.7635 74.3287 56.927 77.179 50.625 78.2549V75.0002H46.8752V78.6827C46.2525 78.7164 45.6283 78.75 45 78.75C44.3662 78.75 43.7496 78.6903 43.1248 78.6546V75.0002H39.375V78.2419C32.9666 77.1597 27.1802 74.2745 22.5357 70.1154L25.1141 67.5378L22.4622 64.886L19.8846 67.4643C14.927 61.9272 11.7829 54.7648 11.3455 46.8752H14.9998V43.1248H11.3455C11.7829 35.2352 14.927 28.0728 19.8846 22.5357L22.4622 25.1141L25.1141 22.4622L22.5357 19.8846C27.1802 15.7256 32.9666 12.8403 39.375 11.7581V14.9998H43.1248V11.3455C43.7496 11.3098 44.3662 11.25 45 11.25C45.6338 11.25 46.2504 11.3098 46.8752 11.3455V14.9998H50.625V11.7581C57.0335 12.8403 62.8198 15.7256 67.4643 19.8846L64.886 22.4622L67.5378 25.1141L70.1154 22.5357C75.073 28.0728 78.2172 35.2352 78.6546 43.1248H75.0002V46.8752H78.6772C78.5138 49.845 77.9872 52.7646 77.0609 55.573L80.6232 56.7485Z" fill="#49618C"/>
<path d="M62.4243 24.9246L45 42.3489L31.3255 28.6743L28.6743 31.3255L42.3489 45L39.9243 47.4246L42.5755 50.0757L45 47.6512L47.4245 50.0757L50.0757 47.4246L47.6511 45L65.0755 27.5757L62.4243 24.9246Z" fill="#49618C"/>
</svg>
