<svg width="90" height="90" viewBox="0 0 90 90" fill="none" xmlns="http://www.w3.org/2000/svg">
<g clip-path="url(#clip0)">
<path d="M84.4185 23.3205C73.4987 3.51912 49.5556 -5.06981 28.539 3.27524C7.52233 11.6203 -4.00719 34.2942 1.63074 56.1929C7.26868 78.0916 28.3141 92.379 50.7477 89.5375C73.1813 86.6961 89.9999 67.6129 90 45C89.9954 37.4187 88.0755 29.9615 84.4185 23.3205ZM80.4375 22.5H73.56C71.1033 16.4718 67.2834 11.0948 62.4 6.79053C69.8001 10.1804 76.0636 15.6355 80.4375 22.5ZM31.9335 67.5C33.489 75.957 35.7795 82.269 38.571 86.019C30.6585 83.589 23.91 76.779 19.6875 67.5H31.9335ZM34.9845 67.5H55.0155C52.455 80.9385 48.1995 87 45 87C41.8005 87 37.545 80.9385 34.9845 67.5ZM58.0665 67.5H70.3125C66.09 76.779 59.3415 83.589 51.429 86.019C54.2205 82.269 56.511 75.957 58.0665 67.5ZM18.441 64.5C13.8513 51.9051 13.8513 38.0949 18.441 25.5H71.559C76.1487 38.0949 76.1487 51.9051 71.559 64.5H18.441ZM55.0155 22.5H34.9845C37.545 9.06153 41.8005 3.00003 45 3.00003C48.1995 3.00003 52.455 9.06153 55.0155 22.5ZM31.9335 22.5H19.6875C23.91 13.221 30.6585 6.41104 38.571 3.98103C35.7795 7.73104 33.489 14.043 31.9335 22.5ZM58.0665 22.5C56.511 14.043 54.2205 7.73104 51.429 3.98103C59.3415 6.41104 66.09 13.221 70.3125 22.5H58.0665ZM27.6 6.79053C22.7166 11.0948 18.8967 16.4718 16.44 22.5H9.5625C13.9364 15.6355 20.1999 10.1804 27.6 6.79053ZM7.818 25.5H15.2625C10.911 38.1359 10.911 51.8642 15.2625 64.5H7.818C1.39046 52.2945 1.39046 37.7056 7.818 25.5ZM9.5625 67.5H16.44C18.897 73.528 22.7168 78.9051 27.6 83.2095C20.1999 79.8197 13.9364 74.3646 9.5625 67.5ZM62.4 83.2095C67.2832 78.9051 71.103 73.528 73.56 67.5H80.4375C76.0636 74.3646 69.8001 79.8197 62.4 83.2095ZM82.182 64.5H74.7375C79.089 51.8642 79.089 38.1359 74.7375 25.5H82.182C88.6095 37.7056 88.6095 52.2945 82.182 64.5Z" fill="#49618C"/>
<path d="M37.5 33.0001C36.6716 33.0001 36 33.6716 36 34.5001V54.0001C36 54.8285 36.6716 55.5001 37.5 55.5001C38.3284 55.5001 39 54.8285 39 54.0001V34.5001C39 33.6716 38.3284 33.0001 37.5 33.0001Z" fill="#49618C"/>
<path d="M54.3375 33.0375C53.9496 32.9478 53.542 33.0159 53.2043 33.2269C52.8667 33.4379 52.6268 33.7745 52.5375 34.1625L48.75 50.5786L44.9625 34.1625C44.7762 33.3548 43.9703 32.8512 43.1625 33.0375C42.3548 33.2239 41.8512 34.0298 42.0375 34.8376L46.5375 54.3375C46.6948 55.0184 47.3013 55.5005 48 55.5H49.5C50.1988 55.5005 50.8053 55.0184 50.9625 54.3375L55.4625 34.8376C55.5523 34.4497 55.4842 34.042 55.2732 33.7043C55.0621 33.3667 54.7255 33.1268 54.3375 33.0375Z" fill="#49618C"/>
<path d="M31.5 52.5001H25.5V34.5001C25.5 33.6716 24.8284 33.0001 24 33.0001C23.1716 33.0001 22.5 33.6716 22.5 34.5001V54.0001C22.5 54.8285 23.1716 55.5001 24 55.5001H31.5C32.3284 55.5001 33 54.8285 33 54.0001C33 53.1716 32.3284 52.5001 31.5 52.5001Z" fill="#49618C"/>
<path d="M67.5 46.5001C68.3284 46.5001 69 45.8285 69 45.0001C69 44.1716 68.3284 43.5001 67.5 43.5001H61.5V36.0001H67.5C68.3284 36.0001 69 35.3285 69 34.5001C69 33.6716 68.3284 33.0001 67.5 33.0001H60C59.1716 33.0001 58.5 33.6716 58.5 34.5001V54.0001C58.5 54.8285 59.1716 55.5001 60 55.5001H67.5C68.3284 55.5001 69 54.8285 69 54.0001C69 53.1716 68.3284 52.5001 67.5 52.5001H61.5V46.5001H67.5Z" fill="#49618C"/>
</g>
<defs>
<clipPath id="clip0">
<rect width="90" height="90" fill="white"/>
</clipPath>
</defs>
</svg>
