<svg width="90" height="90" viewBox="0 0 90 90" fill="none" xmlns="http://www.w3.org/2000/svg">
<g clip-path="url(#clip0)">
<path d="M88.2422 36.2988H73.8281V32.5781C73.8281 31.6072 73.041 30.8203 72.0703 30.8203H34.1016C33.1309 30.8203 32.3438 31.6072 32.3438 32.5781C32.3438 33.5489 33.1309 34.3359 34.1016 34.3359H70.3125V47.8123C70.3125 59.6508 63.9919 70.6537 53.7859 76.6404H20.0422C9.83619 70.6539 3.51562 59.6508 3.51562 47.8125V34.3361H15.293C16.2636 34.3361 17.0508 33.5491 17.0508 32.5782C17.0508 31.6074 16.2636 30.8204 15.293 30.8204H1.75781C0.787148 30.8204 0 31.6074 0 32.5782V47.8125C0 54.457 1.78594 60.9722 5.1648 66.6533C7.44346 70.4848 10.4001 73.8682 13.8625 76.6406H1.75781C0.787148 76.6406 0 77.4276 0 78.3984C0 84.7956 5.20436 90 11.6016 90H66.4453C72.8425 90 78.0469 84.7956 78.0469 78.3984C78.0469 77.4276 77.2597 76.6406 76.2891 76.6406H59.9657C63.1524 74.089 65.9092 71.0186 68.1047 67.5585H73.0665C82.4036 67.5585 90 59.9621 90 50.625V38.0566C90 37.0858 89.213 36.2988 88.2422 36.2988ZM74.3388 80.1562C73.534 83.7724 70.3004 86.4844 66.4453 86.4844H11.6016C7.7465 86.4844 4.51301 83.7724 3.70811 80.1562H19.5713H54.2568H74.3388ZM73.8281 47.8125V46.8457H79.4531V50.625C79.4531 54.1466 76.5881 57.0117 73.0665 57.0117H72.6673C73.4345 54.0223 73.8281 50.9317 73.8281 47.8125ZM86.4844 50.625C86.4844 58.0236 80.4651 64.0429 73.0665 64.0429H70.0747C70.6359 62.8966 71.1373 61.7231 71.5753 60.5273H73.0665C78.5268 60.5273 82.9688 56.0851 82.9688 50.625V45.0879C82.9688 44.117 82.1816 43.3301 81.2109 43.3301H73.8281V39.8145H86.4844V50.625Z" fill="#49618C"/>
<path d="M38.5925 9.72826L37.6779 8.57988C36.3353 6.89449 36.3334 4.53849 37.6732 2.85064C38.2768 2.09021 38.1496 0.984549 37.3891 0.381092C36.6285 -0.222717 35.523 -0.0952753 34.9194 0.665154C32.5566 3.64219 32.5601 7.79748 34.928 10.7703L35.8426 11.9187C37.5971 14.1212 37.5997 17.2 35.8489 19.4059L34.9117 20.5868C34.308 21.3472 34.4353 22.4529 35.1957 23.0563C35.519 23.3128 35.9045 23.4374 36.2873 23.4374C36.8052 23.4374 37.3183 23.2096 37.6655 22.7723L38.6027 21.5914C41.3766 18.0965 41.3725 13.2182 38.5925 9.72826Z" fill="#49618C"/>
<path d="M48.3359 13.6805L47.4214 12.5323C46.0787 10.8468 46.0768 8.49076 47.4166 6.80291C48.0202 6.04248 47.893 4.93682 47.1325 4.33336C46.3719 3.72955 45.2664 3.857 44.6628 4.61742C42.3 7.59446 42.3035 11.7497 44.6714 14.7227L45.586 15.8711C47.3403 18.0738 47.343 21.1528 45.5922 23.3585L44.6551 24.5392C44.0514 25.2997 44.1787 26.4053 44.9391 27.0088C45.2624 27.2653 45.6479 27.3897 46.0307 27.3897C46.5486 27.3897 47.0619 27.1617 47.4089 26.7246L48.3458 25.5438C51.1198 22.0491 51.1158 17.1708 48.3359 13.6805Z" fill="#49618C"/>
<path d="M28.8493 13.6807L27.9347 12.5325C26.5921 10.8471 26.5901 8.49094 27.9298 6.80309C28.5334 6.04266 28.4061 4.93699 27.6457 4.33336C26.8851 3.72973 25.7796 3.85735 25.176 4.61742C22.8133 7.59446 22.8168 11.7499 25.1848 14.7227L26.0993 15.8711C27.8536 18.0738 27.8563 21.1528 26.1057 23.3583L25.1684 24.5391C24.5648 25.2995 24.6919 26.4052 25.4523 27.0088C25.7756 27.2653 26.1609 27.3899 26.5439 27.3899C27.0617 27.3899 27.5748 27.1621 27.9218 26.7249L28.8593 25.544C31.6331 22.0493 31.6291 17.171 28.8493 13.6807Z" fill="#49618C"/>
<path d="M26.4165 31.3347C26.0895 31.0078 25.636 30.8197 25.1737 30.8197C24.7114 30.8197 24.2579 31.0078 23.9309 31.3347C23.6042 31.6635 23.4159 32.1152 23.4159 32.5775C23.4159 33.0398 23.604 33.4933 23.9309 33.822C24.2579 34.149 24.7114 34.3353 25.1737 34.3353C25.636 34.3353 26.0895 34.149 26.4165 33.822C26.745 33.4933 26.9315 33.0416 26.9315 32.5775C26.9315 32.1152 26.745 31.6617 26.4165 31.3347Z" fill="#49618C"/>
<path d="M63.6328 46.0547C62.6621 46.0547 61.875 46.8417 61.875 47.8125C61.875 54.3373 59.2284 60.7497 54.6138 65.4052C53.9304 66.0946 53.9355 67.2077 54.6249 67.8911C54.9676 68.2309 55.415 68.4005 55.8624 68.4005C56.3148 68.4004 56.7673 68.2267 57.1109 67.8799C62.3728 62.5713 65.3906 55.257 65.3906 47.8125C65.3906 46.8417 64.6034 46.0547 63.6328 46.0547Z" fill="#49618C"/>
<path d="M51.6593 70.1763C51.1823 69.3306 50.1102 69.0319 49.2647 69.5088L49.2246 69.5315C48.3789 70.0086 48.0803 71.0806 48.5572 71.9262C48.8802 72.4989 49.476 72.8207 50.0898 72.8207C50.3823 72.8207 50.679 72.7474 50.9518 72.5936L50.9919 72.5709C51.8376 72.0939 52.1362 71.0218 51.6593 70.1763Z" fill="#49618C"/>
</g>
<defs>
<clipPath id="clip0">
<rect width="90" height="90" fill="white"/>
</clipPath>
</defs>
</svg>
